<svg width="94" height="42" viewBox="0 0 94 42" fill="none" xmlns="http://www.w3.org/2000/svg">
<path d="M8.943 0.0637207C9.74208 0.0637207 10.4682 0.133687 11.1246 0.276799C11.781 0.416731 12.3454 0.648891 12.8147 0.970098C13.284 1.29131 13.6487 1.72064 13.9055 2.25175C14.1624 2.78603 14.2924 3.44435 14.2924 4.22988C14.2924 5.07583 14.1021 5.78185 13.7184 6.34794C13.3347 6.91402 12.7671 7.37516 12.0156 7.73771C13.0494 8.03666 13.8199 8.55823 14.3272 9.30241C14.8346 10.0466 15.0914 10.9466 15.0914 11.9961C15.0914 12.8421 14.9265 13.5767 14.5999 14.1968C14.2702 14.817 13.8294 15.3227 13.2745 15.7138C12.7196 16.105 12.0854 16.3976 11.3751 16.5852C10.6616 16.7729 9.93233 16.8683 9.18082 16.8683H1.06323V0.0637207H8.94617H8.943ZM8.4737 6.86314C9.13008 6.86314 9.66914 6.70731 10.094 6.39246C10.5158 6.07761 10.7282 5.56877 10.7282 4.86275C10.7282 4.47158 10.6585 4.15037 10.5158 3.89913C10.3763 3.64789 10.186 3.45071 9.95136 3.31078C9.71671 3.17085 9.44717 3.07226 9.14276 3.01819C8.83835 2.96413 8.52126 2.93551 8.19148 2.93551H4.74152V6.86632H8.4737V6.86314ZM8.68298 13.9933C9.0413 13.9933 9.38693 13.9583 9.71671 13.8884C10.0465 13.8184 10.335 13.7007 10.5855 13.5354C10.836 13.37 11.0358 13.1474 11.1848 12.8643C11.3339 12.5813 11.4068 12.2219 11.4068 11.783C11.4068 10.9212 11.1626 10.3042 10.6807 9.93528C10.1955 9.56637 9.55499 9.38192 8.75592 9.38192H4.74468V13.9933H8.68616H8.68298Z" fill="black"/>
<path d="M19.9239 4.6972V6.9552H19.9714C20.1268 6.57992 20.3393 6.23009 20.6056 5.90889C20.872 5.58768 21.1764 5.31418 21.522 5.0852C21.8645 4.8594 22.2355 4.6813 22.6255 4.55409C23.0155 4.43006 23.4246 4.36646 23.8463 4.36646C24.0651 4.36646 24.3093 4.40462 24.5725 4.48413V7.59125C24.4171 7.55945 24.23 7.53083 24.008 7.50856C23.7892 7.4863 23.5768 7.47358 23.3738 7.47358C22.765 7.47358 22.2482 7.57535 21.8264 7.77889C21.4047 7.98242 21.0622 8.26229 20.8054 8.6153C20.5485 8.96831 20.3646 9.37856 20.2536 9.85242C20.1427 10.3231 20.0888 10.8319 20.0888 11.3821V16.8649H16.7561V4.6972H19.9239Z" fill="black"/>
<path d="M29.3099 4.69727V16.865H25.9773V4.69727H29.3099Z" fill="black"/>
<path d="M34.2723 13.8405C34.4213 14.0981 34.6116 14.3112 34.8462 14.4765C35.0809 14.6419 35.3504 14.7628 35.6548 14.8423C35.9592 14.9218 36.2763 14.9599 36.6061 14.9599C36.8408 14.9599 37.0881 14.9313 37.3449 14.8772C37.6018 14.8232 37.8364 14.7373 38.0489 14.6196C38.2613 14.502 38.4357 14.3461 38.5784 14.149C38.7179 13.9518 38.7909 13.7069 38.7909 13.408C38.7909 12.9055 38.4579 12.5302 37.7952 12.279C37.1293 12.0277 36.2034 11.7765 35.0143 11.5252C34.5291 11.4171 34.0567 11.2867 33.5937 11.1372C33.1308 10.9878 32.7217 10.7938 32.3602 10.5489C32.0019 10.3072 31.7102 9.99871 31.4914 9.6298C31.2726 9.26089 31.1616 8.80929 31.1616 8.27818C31.1616 7.49265 31.3138 6.85024 31.6182 6.34776C31.9226 5.84527 32.3253 5.45092 32.8264 5.15834C33.3274 4.86893 33.8886 4.66539 34.5165 4.54772C35.1411 4.43005 35.7848 4.36963 36.4412 4.36963C37.0976 4.36963 37.735 4.43323 38.3533 4.55726C38.9716 4.68448 39.5234 4.89437 40.0085 5.19332C40.4937 5.49226 40.8964 5.88662 41.2166 6.38274C41.5369 6.87568 41.7303 7.49902 41.7906 8.25274H38.6228C38.5753 7.61033 38.3343 7.17463 37.8967 6.94565C37.4591 6.71985 36.9422 6.60536 36.3493 6.60536C36.1622 6.60536 35.9592 6.61808 35.7404 6.64034C35.5216 6.6626 35.3219 6.71349 35.1411 6.793C34.9604 6.8725 34.8082 6.98381 34.6845 7.13328C34.5577 7.28276 34.4974 7.48311 34.4974 7.73436C34.4974 8.0333 34.6052 8.275 34.8272 8.46264C35.046 8.65027 35.3314 8.80293 35.6834 8.9206C36.0353 9.03827 36.438 9.14322 36.8915 9.23862C37.3449 9.33403 37.8079 9.4358 38.2772 9.54393C38.7623 9.65524 39.2348 9.78881 39.6978 9.94464C40.1607 10.1005 40.5698 10.3104 40.9313 10.568C41.2896 10.8256 41.5813 11.15 41.8001 11.5316C42.0189 11.9164 42.1299 12.3903 42.1299 12.9564C42.1299 13.7578 41.9682 14.4256 41.6479 14.9695C41.3276 15.5101 40.9091 15.9458 40.3922 16.2766C39.8753 16.6073 39.2855 16.8363 38.6197 16.9699C37.9538 17.1034 37.2783 17.1702 36.5903 17.1702C35.9022 17.1702 35.1982 17.1003 34.526 16.9571C33.8537 16.8172 33.2544 16.5819 32.7312 16.2511C32.208 15.9204 31.7768 15.4847 31.4407 14.944C31.1045 14.4034 30.9206 13.7228 30.8889 12.9087H34.0567C34.0567 13.2712 34.1296 13.5797 34.2786 13.8373L34.2723 13.8405Z" fill="black"/>
<path d="M47.2352 0.0637207V9.07661L51.4367 4.70056H55.3782L50.8025 9.17202L55.895 16.8683H51.8585L48.5258 11.4332L47.2352 12.6799V16.8683H43.9026V0.0637207H47.2352Z" fill="black"/>
<path d="M55.635 3.16767V0.0605469H69.362V3.16767H64.3392V16.8651H60.6546V3.16767H55.6318H55.635Z" fill="black"/>
<path d="M71.4293 13.9486C71.9303 14.4352 72.6501 14.6769 73.5887 14.6769C74.261 14.6769 74.8412 14.5083 75.3264 14.1712C75.8115 13.8341 76.1096 13.4779 76.2174 13.0995H79.1505C78.6812 14.5592 77.9614 15.6023 76.9911 16.2289C76.0208 16.8554 74.8476 17.1702 73.4714 17.1702C72.5169 17.1702 71.6576 17.0176 70.8903 16.7123C70.1229 16.407 69.4728 15.9713 68.9433 15.4052C68.4106 14.8391 68.0015 14.1649 67.7098 13.3825C67.4213 12.597 67.2754 11.7351 67.2754 10.7938C67.2754 9.85242 67.4244 9.03827 67.7225 8.25274C68.0206 7.46721 68.4423 6.78981 68.9909 6.21737C69.5394 5.64492 70.1926 5.19332 70.9505 4.86257C71.7084 4.53182 72.5486 4.36963 73.4746 4.36963C74.5083 4.36963 75.4057 4.56999 76.173 4.9707C76.9404 5.37141 77.5682 5.90888 78.0629 6.5831C78.5544 7.25732 78.9095 8.02694 79.1315 8.88879C79.3503 9.75065 79.4296 10.6538 79.3662 11.5952H70.6144C70.6619 12.6765 70.9346 13.462 71.4357 13.9486H71.4293ZM75.1932 7.54672C74.7937 7.10784 74.188 6.8884 73.3731 6.8884C72.8404 6.8884 72.3996 6.97745 72.0476 7.15873C71.6957 7.34 71.4135 7.56262 71.2042 7.82976C70.9917 8.09691 70.8427 8.37995 70.7571 8.67572C70.6715 8.97466 70.6207 9.2418 70.6049 9.47714H76.024C75.8686 8.63119 75.5896 7.9856 75.19 7.54672H75.1932Z" fill="black"/>
<path d="M84.4967 0.0637207V9.07661L88.6982 4.70056H92.6397L88.064 9.17202L93.1565 16.8683H89.1199L85.7873 11.4332L84.4967 12.6799V16.8683H81.1641V0.0637207H84.4967Z" fill="black"/>
<path d="M3.87262 36.6432C4.07556 37.0343 4.3451 37.3524 4.68121 37.5972C5.01733 37.8421 5.4137 38.0202 5.86714 38.1379C6.32058 38.2556 6.78988 38.316 7.27503 38.316C7.60481 38.316 7.95678 38.2874 8.33095 38.2333C8.70512 38.1792 9.0571 38.0711 9.38688 37.9153C9.71665 37.7594 9.98935 37.5432 10.2081 37.2665C10.4269 36.993 10.5379 36.6432 10.5379 36.2202C10.5379 35.7654 10.3921 35.3965 10.1035 35.1135C9.81496 34.8304 9.43444 34.5951 8.96514 34.4074C8.49584 34.2198 7.96312 34.0544 7.37016 33.9145C6.77719 33.7746 6.17472 33.6155 5.56273 33.4438C4.93806 33.288 4.32606 33.094 3.7331 32.8682C3.13696 32.6424 2.60742 32.3466 2.13812 31.9872C1.66882 31.6279 1.28831 31.1763 0.999757 30.6325C0.711202 30.0918 0.565341 29.4367 0.565341 28.667C0.565341 27.8052 0.749252 27.0546 1.11708 26.4186C1.48491 25.7825 1.9669 25.2546 2.55986 24.8285C3.15282 24.4055 3.82823 24.0906 4.57657 23.8871C5.32808 23.6836 6.07959 23.5818 6.82793 23.5818C7.70311 23.5818 8.5434 23.6804 9.35199 23.8776C10.1574 24.0747 10.874 24.3928 11.4987 24.8316C12.1234 25.2705 12.6212 25.8334 12.9891 26.514C13.3569 27.1978 13.5408 28.0246 13.5408 28.9978H9.9735C9.94179 28.4953 9.83715 28.0787 9.65641 27.7511C9.47567 27.4236 9.23784 27.1628 8.93977 26.9751C8.64171 26.7875 8.30242 26.6539 7.91873 26.5744C7.53505 26.4949 7.11649 26.4568 6.66305 26.4568C6.36498 26.4568 6.06691 26.4886 5.77202 26.5522C5.47395 26.6158 5.20441 26.7239 4.96342 26.8829C4.71926 27.0387 4.5195 27.2359 4.36412 27.4713C4.20875 27.7066 4.12947 28.0055 4.12947 28.3649C4.12947 28.6957 4.19289 28.9628 4.31656 29.1663C4.44023 29.3699 4.68755 29.5575 5.05538 29.7324C5.42321 29.9042 5.93056 30.0791 6.5806 30.2508C7.23064 30.4226 8.07728 30.642 9.12686 30.9091C9.44078 30.9727 9.8752 31.0872 10.4301 31.2494C10.985 31.4148 11.5368 31.6756 12.0853 32.0381C12.6339 32.4007 13.1064 32.8809 13.5059 33.4852C13.9055 34.0894 14.1052 34.8622 14.1052 35.8036C14.1052 36.5732 13.9562 37.2856 13.6581 37.9439C13.3601 38.6022 12.9193 39.1715 12.3327 39.6517C11.7461 40.1319 11.0199 40.504 10.1511 40.768C9.28224 41.0351 8.27705 41.1687 7.13551 41.1687C6.21277 41.1687 5.3154 41.0542 4.44973 40.8284C3.5809 40.6026 2.81353 40.2432 2.15081 39.7567C1.48491 39.2701 0.958536 38.6499 0.565341 37.8962C0.175316 37.1425 -0.0149396 36.2488 0.000915055 35.212H3.56821C3.56821 35.7781 3.66968 36.2552 3.87262 36.6463V36.6432Z" fill="black"/>
<path d="M16.0047 32.0636C16.3028 31.2717 16.7245 30.5975 17.2731 30.0409C17.8217 29.4844 18.478 29.0518 19.2454 28.7465C20.0128 28.4412 20.8721 28.2886 21.8265 28.2886C22.781 28.2886 23.6435 28.4412 24.4204 28.7465C25.1973 29.0518 25.8568 29.4844 26.4022 30.0409C26.9508 30.5975 27.3725 31.2717 27.6706 32.0636C27.9687 32.8554 28.1177 33.7396 28.1177 34.7127C28.1177 35.6859 27.9687 36.5636 27.6706 37.3492C27.3725 38.1347 26.9508 38.8057 26.4022 39.3623C25.8536 39.9188 25.1941 40.3482 24.4204 40.6439C23.6467 40.9397 22.781 41.0923 21.8265 41.0923C20.8721 41.0923 20.0128 40.9429 19.2454 40.6439C18.478 40.345 17.8217 39.9188 17.2731 39.3623C16.7245 38.8057 16.3028 38.1347 16.0047 37.3492C15.7067 36.5636 15.5576 35.6859 15.5576 34.7127C15.5576 33.7396 15.7067 32.8586 16.0047 32.0636ZM19.033 36.1343C19.1281 36.5986 19.2866 37.0121 19.5149 37.381C19.7401 37.7499 20.0445 38.0425 20.4187 38.2619C20.7928 38.4813 21.2621 38.5927 21.8265 38.5927C22.391 38.5927 22.8634 38.4845 23.2471 38.2619C23.6308 38.0425 23.9352 37.7467 24.1635 37.381C24.3887 37.0121 24.5504 36.5954 24.6455 36.1343C24.7406 35.6732 24.785 35.1961 24.785 34.7095C24.785 34.223 24.7375 33.7459 24.6455 33.2752C24.5536 32.8046 24.3918 32.3879 24.1635 32.0286C23.9352 31.6692 23.6308 31.3734 23.2471 31.1445C22.8634 30.9187 22.391 30.8042 21.8265 30.8042C21.2621 30.8042 20.7928 30.9187 20.4187 31.1445C20.0445 31.3734 19.7433 31.666 19.5149 32.0286C19.2866 32.3911 19.1281 32.8046 19.033 33.2752C18.9378 33.7459 18.8934 34.2261 18.8934 34.7095C18.8934 35.1929 18.941 35.67 19.033 36.1343Z" fill="black"/>
<path d="M33.2291 23.9792V40.7838H29.8965V23.9792H33.2291Z" fill="black"/>
<path d="M43.598 40.7837V39.0886H43.5282C43.1065 39.7946 42.5579 40.3035 41.8857 40.6183C41.2134 40.9332 40.5253 41.089 39.8214 41.089C38.9304 41.089 38.1979 40.9713 37.6271 40.736C37.0563 40.5006 36.6061 40.1667 36.2763 39.7342C35.9465 39.3017 35.7182 38.7769 35.585 38.1568C35.4518 37.5366 35.3853 36.8497 35.3853 36.096V28.6128H38.7179V35.4854C38.7179 36.4903 38.8733 37.2377 39.1872 37.7338C39.5011 38.2268 40.056 38.4748 40.8519 38.4748C41.7588 38.4748 42.4152 38.2045 42.8243 37.6638C43.2301 37.1232 43.4331 36.2327 43.4331 34.9924V28.616H46.7657V40.7837H43.598Z" fill="black"/>
<path d="M55.9648 28.616V30.8518H53.5232V36.8752C53.5232 37.4413 53.6183 37.8165 53.8054 38.0042C53.9925 38.1918 54.3698 38.2872 54.9311 38.2872C55.1182 38.2872 55.2989 38.2809 55.4701 38.265C55.6414 38.2491 55.8063 38.2268 55.9616 38.195V40.7837C55.6794 40.8314 55.3655 40.8633 55.023 40.8792C54.6774 40.8951 54.3413 40.9014 54.0147 40.9014C53.4978 40.9014 53.0095 40.8664 52.5497 40.7965C52.0868 40.7265 51.6809 40.5897 51.3289 40.3862C50.9769 40.1827 50.6979 39.8933 50.4949 39.5148C50.292 39.1395 50.1905 38.6434 50.1905 38.0328V30.8549H48.1738V28.6192H50.1905V24.9714H53.5232V28.6192H55.9648V28.616Z" fill="black"/>
<path d="M60.9874 28.616V40.7837H57.6548V28.616H60.9874Z" fill="black"/>
<path d="M63.2166 32.0636C63.5147 31.2717 63.9364 30.5975 64.485 30.0409C65.0336 29.4844 65.69 29.0518 66.4573 28.7465C67.2247 28.4412 68.084 28.2886 69.0385 28.2886C69.9929 28.2886 70.8554 28.4412 71.6323 28.7465C72.4092 29.0518 73.0687 29.4844 73.6141 30.0409C74.1627 30.5975 74.5844 31.2717 74.8825 32.0636C75.1806 32.8554 75.3296 33.7396 75.3296 34.7127C75.3296 35.6859 75.1806 36.5636 74.8825 37.3492C74.5844 38.1347 74.1627 38.8057 73.6141 39.3623C73.0655 39.9188 72.406 40.3482 71.6323 40.6439C70.8586 40.9397 69.9929 41.0923 69.0385 41.0923C68.084 41.0923 67.2247 40.9429 66.4573 40.6439C65.69 40.345 65.0336 39.9188 64.485 39.3623C63.9364 38.8057 63.5147 38.1347 63.2166 37.3492C62.9186 36.5636 62.7695 35.6859 62.7695 34.7127C62.7695 33.7396 62.9186 32.8586 63.2166 32.0636ZM66.2417 36.1343C66.3368 36.5986 66.4954 37.0121 66.7237 37.381C66.9488 37.7499 67.2532 38.0425 67.6274 38.2619C68.0016 38.4813 68.4709 38.5927 69.0353 38.5927C69.5997 38.5927 70.0722 38.4845 70.4559 38.2619C70.8396 38.0425 71.144 37.7467 71.3723 37.381C71.5974 37.0121 71.7591 36.5954 71.8543 36.1343C71.9494 35.6732 71.9938 35.1961 71.9938 34.7095C71.9938 34.223 71.9462 33.7459 71.8543 33.2752C71.7623 32.8046 71.6006 32.3879 71.3723 32.0286C71.144 31.6692 70.8396 31.3734 70.4559 31.1445C70.0722 30.9187 69.5997 30.8042 69.0353 30.8042C68.4709 30.8042 68.0016 30.9187 67.6274 31.1445C67.2532 31.3734 66.952 31.666 66.7237 32.0286C66.4954 32.3911 66.3368 32.8046 66.2417 33.2752C66.1466 33.7459 66.1022 34.2261 66.1022 34.7095C66.1022 35.1929 66.1497 35.67 66.2417 36.1343Z" fill="black"/>
<path d="M80.1812 28.6161V30.3112H80.2509C80.6727 29.6052 81.2212 29.0932 81.8935 28.7688C82.5657 28.4476 83.2538 28.2854 83.9578 28.2854C84.8488 28.2854 85.5813 28.4063 86.152 28.6511C86.7228 28.896 87.1731 29.2331 87.4997 29.6625C87.8295 30.095 88.0578 30.6197 88.191 31.2399C88.3241 31.86 88.3907 32.547 88.3907 33.2975V40.7807H85.0581V33.9081C85.0581 32.9032 84.9027 32.1558 84.5888 31.6597C84.2748 31.1667 83.7199 30.9187 82.924 30.9187C82.0171 30.9187 81.3608 31.189 80.9517 31.7296C80.5458 32.2703 80.3429 33.1608 80.3429 34.4011V40.7775H77.0103V28.6098H80.178L80.1812 28.6161Z" fill="black"/>
<path d="M27.6452 3.89901C28.7187 3.89901 29.589 3.02619 29.589 1.94951C29.589 0.872824 28.7187 0 27.6452 0C26.5717 0 25.7014 0.872824 25.7014 1.94951C25.7014 3.02619 26.5717 3.89901 27.6452 3.89901Z" fill="black"/>
<path d="M59.3195 27.5953C60.393 27.5953 61.2633 26.7225 61.2633 25.6458C61.2633 24.5691 60.393 23.6963 59.3195 23.6963C58.246 23.6963 57.3757 24.5691 57.3757 25.6458C57.3757 26.7225 58.246 27.5953 59.3195 27.5953Z" fill="black"/>
</svg>
